<svg width="83" height="83" viewBox="0 0 83 83" fill="none" xmlns="http://www.w3.org/2000/svg">
<circle cx="41.5" cy="41.5" r="41.5" fill="white" fill-opacity="0.5"/>
<path d="M41.37 32.02C43.386 32.02 44.943 32.524 46.041 33.532C47.157 34.522 47.715 35.908 47.715 37.69C47.715 39.49 47.139 41.227 45.987 42.901C44.853 44.575 42.639 46.78 39.345 49.516V49.57H47.715V52H35.295V49.57C38.967 46.654 41.442 44.377 42.72 42.739C43.998 41.083 44.637 39.49 44.637 37.96C44.637 35.656 43.413 34.504 40.965 34.504C39.327 34.504 37.617 35.098 35.835 36.286L35.025 33.91C36.879 32.65 38.994 32.02 41.37 32.02Z" fill="#282C3F"/>
</svg>
