<svg width="83" height="83" viewBox="0 0 83 83" fill="none" xmlns="http://www.w3.org/2000/svg">
<circle cx="41.5" cy="41.5" r="41.5" fill="white" fill-opacity="0.5"/>
<path d="M35.295 32.29H47.445V34.72L41.64 40.363V40.417H42.18C43.926 40.417 45.285 40.885 46.257 41.821C47.229 42.739 47.715 44.062 47.715 45.79C47.715 47.842 47.085 49.435 45.825 50.569C44.583 51.703 42.828 52.27 40.56 52.27C38.598 52.27 36.843 51.82 35.295 50.92L36.105 48.49C37.743 49.39 39.228 49.84 40.56 49.84C41.892 49.84 42.918 49.489 43.638 48.787C44.376 48.085 44.745 47.086 44.745 45.79C44.745 44.692 44.349 43.882 43.557 43.36C42.783 42.82 41.514 42.55 39.75 42.55H37.86V40.282L43.665 34.774V34.72H35.295V32.29Z" fill="#282C3F"/>
</svg>
